<mxfile host="app.diagrams.net" agent="Mozilla/5.0 (Windows NT 10.0; Win64; x64) AppleWebKit/537.36 (KHTML, like Gecko) Chrome/134.0.0.0 Safari/537.36 Edg/134.0.0.0" version="26.1.1">
  <diagram name="Page-1" id="0OiyrpcZZHxeWFfUr0vv">
    <mxGraphModel dx="1191" dy="1335" grid="0" gridSize="10" guides="1" tooltips="1" connect="1" arrows="1" fold="1" page="0" pageScale="1" pageWidth="850" pageHeight="1100" math="0" shadow="0">
      <root>
        <mxCell id="0" />
        <mxCell id="1" parent="0" />
        <mxCell id="ghikb2f4KjSmce1Aoro2-1" value="" style="whiteSpace=wrap;html=1;aspect=fixed;" vertex="1" parent="1">
          <mxGeometry x="-347" y="36.58" width="208" height="208" as="geometry" />
        </mxCell>
        <mxCell id="ghikb2f4KjSmce1Aoro2-2" value="Filter employees by work duration" style="ellipse;whiteSpace=wrap;html=1;" vertex="1" parent="1">
          <mxGeometry x="-303" y="40" width="120" height="80" as="geometry" />
        </mxCell>
        <mxCell id="ghikb2f4KjSmce1Aoro2-3" value="Number of completed/uncompleted tasks" style="ellipse;whiteSpace=wrap;html=1;" vertex="1" parent="1">
          <mxGeometry x="-303" y="150" width="120" height="80" as="geometry" />
        </mxCell>
        <mxCell id="ghikb2f4KjSmce1Aoro2-4" value="Utility" style="text;html=1;align=center;verticalAlign=middle;resizable=0;points=[];autosize=1;strokeColor=none;fillColor=none;fontSize=16;" vertex="1" parent="1">
          <mxGeometry x="-279.5" y="5.5" width="57" height="31" as="geometry" />
        </mxCell>
        <mxCell id="ghikb2f4KjSmce1Aoro2-5" value="Actor" style="shape=umlActor;verticalLabelPosition=bottom;verticalAlign=top;html=1;outlineConnect=0;" vertex="1" parent="1">
          <mxGeometry x="-41" y="112" width="30" height="74" as="geometry" />
        </mxCell>
        <mxCell id="ghikb2f4KjSmce1Aoro2-6" value="" style="rounded=0;whiteSpace=wrap;html=1;rotation=90;" vertex="1" parent="1">
          <mxGeometry x="-47.38" y="122.55" width="423.12" height="122.03" as="geometry" />
        </mxCell>
        <mxCell id="ghikb2f4KjSmce1Aoro2-7" value="Task Management" style="text;html=1;align=center;verticalAlign=middle;resizable=0;points=[];autosize=1;strokeColor=none;fillColor=none;fontSize=16;" vertex="1" parent="1">
          <mxGeometry x="88" y="-59.5" width="149" height="31" as="geometry" />
        </mxCell>
        <mxCell id="ghikb2f4KjSmce1Aoro2-8" value="add employee" style="ellipse;whiteSpace=wrap;html=1;" vertex="1" parent="1">
          <mxGeometry x="118" y="-20" width="89" height="51" as="geometry" />
        </mxCell>
        <mxCell id="ghikb2f4KjSmce1Aoro2-10" value="add task" style="ellipse;whiteSpace=wrap;html=1;" vertex="1" parent="1">
          <mxGeometry x="120" y="36.5" width="89" height="51" as="geometry" />
        </mxCell>
        <mxCell id="ghikb2f4KjSmce1Aoro2-12" value="assign task to employee" style="ellipse;whiteSpace=wrap;html=1;" vertex="1" parent="1">
          <mxGeometry x="124.13" y="222" width="89" height="51" as="geometry" />
        </mxCell>
        <mxCell id="ghikb2f4KjSmce1Aoro2-13" value="calculate employee work duration&lt;span style=&quot;color: rgba(0, 0, 0, 0); font-family: monospace; font-size: 0px; text-align: start; text-wrap-mode: nowrap;&quot;&gt;%3CmxGraphModel%3E%3Croot%3E%3CmxCell%20id%3D%220%22%2F%3E%3CmxCell%20id%3D%221%22%20parent%3D%220%22%2F%3E%3CmxCell%20id%3D%222%22%20value%3D%22add%20task%22%20style%3D%22ellipse%3BwhiteSpace%3Dwrap%3Bhtml%3D1%3B%22%20vertex%3D%221%22%20parent%3D%221%22%3E%3CmxGeometry%20x%3D%22127.5%22%20y%3D%2233%22%20width%3D%2289%22%20height%3D%2251%22%20as%3D%22geometry%22%2F%3E%3C%2FmxCell%3E%3C%2Froot%3E%3C%2FmxGraphModel%3E&lt;/span&gt;" style="ellipse;whiteSpace=wrap;html=1;" vertex="1" parent="1">
          <mxGeometry x="124.13" y="281" width="89" height="51" as="geometry" />
        </mxCell>
        <mxCell id="ghikb2f4KjSmce1Aoro2-15" value="modify task status" style="ellipse;whiteSpace=wrap;html=1;" vertex="1" parent="1">
          <mxGeometry x="122" y="340" width="89" height="51" as="geometry" />
        </mxCell>
        <mxCell id="ghikb2f4KjSmce1Aoro2-16" value="get tasks" style="ellipse;whiteSpace=wrap;html=1;" vertex="1" parent="1">
          <mxGeometry x="118" y="99" width="89" height="51" as="geometry" />
        </mxCell>
        <mxCell id="ghikb2f4KjSmce1Aoro2-17" value="get employees" style="ellipse;whiteSpace=wrap;html=1;" vertex="1" parent="1">
          <mxGeometry x="120" y="158.07" width="89" height="51" as="geometry" />
        </mxCell>
        <mxCell id="ghikb2f4KjSmce1Aoro2-19" value="" style="endArrow=none;html=1;rounded=0;fontSize=12;startSize=8;endSize=8;curved=1;" edge="1" parent="1">
          <mxGeometry width="50" height="50" relative="1" as="geometry">
            <mxPoint x="54" y="137" as="sourcePoint" />
            <mxPoint x="3" y="137" as="targetPoint" />
          </mxGeometry>
        </mxCell>
        <mxCell id="ghikb2f4KjSmce1Aoro2-26" value="" style="endArrow=block;endFill=1;html=1;edgeStyle=orthogonalEdgeStyle;align=left;verticalAlign=top;rounded=0;fontSize=12;startSize=8;endSize=8;curved=1;entryX=0.068;entryY=1.003;entryDx=0;entryDy=0;entryPerimeter=0;" edge="1" parent="1" target="ghikb2f4KjSmce1Aoro2-6">
          <mxGeometry x="-1" relative="1" as="geometry">
            <mxPoint x="52" y="1" as="sourcePoint" />
            <mxPoint x="77" y="162" as="targetPoint" />
          </mxGeometry>
        </mxCell>
        <mxCell id="ghikb2f4KjSmce1Aoro2-41" value="" style="endArrow=classic;html=1;rounded=0;fontSize=12;startSize=8;endSize=8;curved=1;" edge="1" parent="1">
          <mxGeometry width="50" height="50" relative="1" as="geometry">
            <mxPoint x="55" y="125" as="sourcePoint" />
            <mxPoint x="102" y="125" as="targetPoint" />
          </mxGeometry>
        </mxCell>
        <mxCell id="ghikb2f4KjSmce1Aoro2-47" value="" style="endArrow=classic;html=1;rounded=0;fontSize=12;startSize=8;endSize=8;curved=1;" edge="1" parent="1">
          <mxGeometry width="50" height="50" relative="1" as="geometry">
            <mxPoint x="52" y="54" as="sourcePoint" />
            <mxPoint x="100" y="54" as="targetPoint" />
          </mxGeometry>
        </mxCell>
        <mxCell id="ghikb2f4KjSmce1Aoro2-48" value="" style="endArrow=classic;html=1;rounded=0;fontSize=12;startSize=8;endSize=8;curved=1;" edge="1" parent="1">
          <mxGeometry width="50" height="50" relative="1" as="geometry">
            <mxPoint x="56" y="186" as="sourcePoint" />
            <mxPoint x="104" y="186" as="targetPoint" />
          </mxGeometry>
        </mxCell>
        <mxCell id="ghikb2f4KjSmce1Aoro2-49" value="" style="endArrow=classic;html=1;rounded=0;fontSize=12;startSize=8;endSize=8;curved=1;" edge="1" parent="1">
          <mxGeometry width="50" height="50" relative="1" as="geometry">
            <mxPoint x="54" y="247" as="sourcePoint" />
            <mxPoint x="102" y="247" as="targetPoint" />
          </mxGeometry>
        </mxCell>
        <mxCell id="ghikb2f4KjSmce1Aoro2-50" value="" style="endArrow=classic;html=1;rounded=0;fontSize=12;startSize=8;endSize=8;curved=1;" edge="1" parent="1">
          <mxGeometry width="50" height="50" relative="1" as="geometry">
            <mxPoint x="53" y="306" as="sourcePoint" />
            <mxPoint x="101" y="306" as="targetPoint" />
          </mxGeometry>
        </mxCell>
        <mxCell id="ghikb2f4KjSmce1Aoro2-51" value="" style="endArrow=classic;html=1;rounded=0;fontSize=12;startSize=8;endSize=8;curved=1;" edge="1" parent="1">
          <mxGeometry width="50" height="50" relative="1" as="geometry">
            <mxPoint x="51" y="361" as="sourcePoint" />
            <mxPoint x="98" y="363" as="targetPoint" />
          </mxGeometry>
        </mxCell>
        <mxCell id="ghikb2f4KjSmce1Aoro2-52" value="" style="endArrow=none;html=1;rounded=0;fontSize=12;startSize=8;endSize=8;curved=1;" edge="1" parent="1">
          <mxGeometry width="50" height="50" relative="1" as="geometry">
            <mxPoint x="53" y="361" as="sourcePoint" />
            <mxPoint x="53" y="-2" as="targetPoint" />
          </mxGeometry>
        </mxCell>
        <mxCell id="ghikb2f4KjSmce1Aoro2-53" value="" style="endArrow=classic;html=1;rounded=0;fontSize=12;startSize=8;endSize=8;curved=1;" edge="1" parent="1">
          <mxGeometry width="50" height="50" relative="1" as="geometry">
            <mxPoint x="-89" y="84" as="sourcePoint" />
            <mxPoint x="-130" y="84" as="targetPoint" />
          </mxGeometry>
        </mxCell>
        <mxCell id="ghikb2f4KjSmce1Aoro2-54" value="" style="endArrow=classic;html=1;rounded=0;fontSize=12;startSize=8;endSize=8;curved=1;" edge="1" parent="1">
          <mxGeometry width="50" height="50" relative="1" as="geometry">
            <mxPoint x="-91" y="194" as="sourcePoint" />
            <mxPoint x="-132" y="194" as="targetPoint" />
          </mxGeometry>
        </mxCell>
        <mxCell id="ghikb2f4KjSmce1Aoro2-55" value="" style="endArrow=none;html=1;rounded=0;fontSize=12;startSize=8;endSize=8;curved=1;" edge="1" parent="1">
          <mxGeometry width="50" height="50" relative="1" as="geometry">
            <mxPoint x="-89" y="194" as="sourcePoint" />
            <mxPoint x="-87" y="82" as="targetPoint" />
          </mxGeometry>
        </mxCell>
        <mxCell id="ghikb2f4KjSmce1Aoro2-56" value="" style="endArrow=none;html=1;rounded=0;fontSize=12;startSize=8;endSize=8;curved=1;" edge="1" parent="1">
          <mxGeometry width="50" height="50" relative="1" as="geometry">
            <mxPoint x="-45" y="136" as="sourcePoint" />
            <mxPoint x="-89" y="136" as="targetPoint" />
          </mxGeometry>
        </mxCell>
      </root>
    </mxGraphModel>
  </diagram>
</mxfile>
